<mxfile host="Electron" agent="Mozilla/5.0 (Windows NT 10.0; Win64; x64) AppleWebKit/537.36 (KHTML, like Gecko) draw.io/27.0.9 Chrome/134.0.6998.205 Electron/35.4.0 Safari/537.36" version="27.0.9">
  <diagram name="Page-1" id="JIV0U7xj5EQli7SxjZzi">
    <mxGraphModel dx="858" dy="533" grid="1" gridSize="10" guides="1" tooltips="1" connect="1" arrows="1" fold="1" page="1" pageScale="1" pageWidth="1654" pageHeight="2336" math="0" shadow="0">
      <root>
        <mxCell id="0" />
        <mxCell id="1" parent="0" />
        <mxCell id="Cp2J34wRkjLyfckQq_pH-1" value="" style="rounded=0;whiteSpace=wrap;html=1;absoluteArcSize=1;arcSize=14;strokeWidth=2;hachureGap=4;fontFamily=Architects Daughter;fontSource=https%3A%2F%2Ffonts.googleapis.com%2Fcss%3Ffamily%3DArchitects%2BDaughter;fillColor=#FFFFFF;" vertex="1" parent="1">
          <mxGeometry x="180" y="40" width="660" height="400" as="geometry" />
        </mxCell>
        <mxCell id="Cp2J34wRkjLyfckQq_pH-2" value="Content" style="rounded=0;whiteSpace=wrap;absoluteArcSize=1;arcSize=14;strokeWidth=2;hachureGap=4;fontFamily=Architects Daughter;fontSource=https%3A%2F%2Ffonts.googleapis.com%2Fcss%3Ffamily%3DArchitects%2BDaughter;fillColor=#CDCDCD;strokeColor=none;dashed=1;perimeterSpacing=3;fontSize=48;fontColor=light-dark(#000000,#000312);" vertex="1" parent="1">
          <mxGeometry x="340" y="120" width="500" height="320" as="geometry" />
        </mxCell>
        <mxCell id="Cp2J34wRkjLyfckQq_pH-4" value="Inicio" style="verticalLabelPosition=bottom;verticalAlign=top;html=1;shape=card;whiteSpace=wrap;size=20;arcSize=12;hachureGap=4;fontFamily=Architects Daughter;fontSource=https%3A%2F%2Ffonts.googleapis.com%2Fcss%3Ffamily%3DArchitects%2BDaughter;rounded=1;fillColor=#0050ef;fontColor=#ffffff;strokeColor=#001DBC;align=center;spacingTop=-28;fontStyle=1;fontSize=14;" vertex="1" parent="1">
          <mxGeometry x="210" y="140" width="100" height="32" as="geometry" />
        </mxCell>
        <mxCell id="Cp2J34wRkjLyfckQq_pH-10" value="Registro" style="verticalLabelPosition=bottom;verticalAlign=top;html=1;shape=card;whiteSpace=wrap;size=20;arcSize=12;hachureGap=4;fontFamily=Architects Daughter;fontSource=https%3A%2F%2Ffonts.googleapis.com%2Fcss%3Ffamily%3DArchitects%2BDaughter;rounded=1;fillColor=#0050ef;fontColor=#ffffff;strokeColor=#001DBC;align=center;spacingTop=-28;fontStyle=1;fontSize=14;" vertex="1" parent="1">
          <mxGeometry x="210" y="240" width="100" height="32" as="geometry" />
        </mxCell>
        <mxCell id="Cp2J34wRkjLyfckQq_pH-11" value="Consultas" style="verticalLabelPosition=bottom;verticalAlign=top;html=1;shape=card;whiteSpace=wrap;size=20;arcSize=12;hachureGap=4;fontFamily=Architects Daughter;fontSource=https%3A%2F%2Ffonts.googleapis.com%2Fcss%3Ffamily%3DArchitects%2BDaughter;rounded=1;fillColor=#0050ef;fontColor=#ffffff;strokeColor=#001DBC;align=center;spacingTop=-28;fontStyle=1;fontSize=14;" vertex="1" parent="1">
          <mxGeometry x="210" y="190" width="100" height="32" as="geometry" />
        </mxCell>
        <mxCell id="Cp2J34wRkjLyfckQq_pH-12" value="Natura" style="strokeWidth=2;html=1;shape=mxgraph.flowchart.delay;whiteSpace=wrap;sketch=1;hachureGap=4;jiggle=2;curveFitting=1;fontFamily=Architects Daughter;fontSource=https%3A%2F%2Ffonts.googleapis.com%2Fcss%3Ffamily%3DArchitects%2BDaughter;fontSize=26;" vertex="1" parent="1">
          <mxGeometry x="220" y="50" width="320" height="60" as="geometry" />
        </mxCell>
        <mxCell id="Cp2J34wRkjLyfckQq_pH-13" value="Reporte" style="verticalLabelPosition=bottom;verticalAlign=top;html=1;shape=card;whiteSpace=wrap;size=20;arcSize=12;hachureGap=4;fontFamily=Architects Daughter;fontSource=https%3A%2F%2Ffonts.googleapis.com%2Fcss%3Ffamily%3DArchitects%2BDaughter;rounded=1;fillColor=#0050ef;fontColor=#ffffff;strokeColor=#001DBC;align=center;spacingTop=-28;fontStyle=1;fontSize=14;" vertex="1" parent="1">
          <mxGeometry x="210" y="289" width="100" height="32" as="geometry" />
        </mxCell>
      </root>
    </mxGraphModel>
  </diagram>
</mxfile>
